<svg width="135" height="25" fill="none" xmlns="http://www.w3.org/2000/svg"><path d="M40.608 8.784c1.653 0 2.923.293 3.808.88.885.576 1.328 1.525 1.328 2.848 0 1.333-.448 2.299-1.344 2.896-.896.587-2.176.88-3.84.88h-.784V20H37.28V9.072c.544-.107 1.12-.181 1.728-.224a23.2 23.2 0 011.6-.064zm.16 2.128c-.181 0-.363.005-.544.016-.17.01-.32.021-.448.032v3.2h.784c.864 0 1.515-.117 1.952-.352.437-.235.656-.672.656-1.312 0-.31-.059-.565-.176-.768a1.157 1.157 0 00-.48-.48 1.898 1.898 0 00-.752-.256 5.665 5.665 0 00-.992-.08zm14.377-2h2.496V20h-2.496v-4.704h-4.192V20h-2.496V8.912h2.496v4.24h4.192v-4.24zm8.038 5.536c0 .544.064 1.035.192 1.472.139.437.33.816.576 1.136.256.31.565.55.928.72.362.17.778.256 1.248.256.459 0 .87-.085 1.232-.256.373-.17.683-.41.928-.72.256-.32.448-.699.576-1.136a4.86 4.86 0 00.208-1.472 4.86 4.86 0 00-.208-1.472 3.086 3.086 0 00-.576-1.136 2.417 2.417 0 00-.928-.736 2.86 2.86 0 00-1.232-.256c-.47 0-.885.09-1.248.272-.363.17-.672.416-.928.736-.245.31-.438.688-.576 1.136a5.173 5.173 0 00-.192 1.456zm8.464 0c0 .95-.144 1.787-.432 2.512a5.157 5.157 0 01-1.152 1.808 4.8 4.8 0 01-1.76 1.088 6.298 6.298 0 01-2.176.368 6.203 6.203 0 01-2.144-.368 4.985 4.985 0 01-1.76-1.088 5.222 5.222 0 01-1.184-1.808c-.288-.725-.432-1.563-.432-2.512 0-.95.15-1.781.448-2.496.298-.725.699-1.333 1.2-1.824a5.063 5.063 0 011.76-1.104 6.11 6.11 0 012.112-.368c.757 0 1.472.123 2.144.368a4.876 4.876 0 011.76 1.104c.501.49.896 1.099 1.184 1.824.288.715.432 1.547.432 2.496zm10.81-5.536v2.128h-3.344V20h-2.496v-8.96h-3.345V8.912h9.184zm4.205 5.536c0 .544.064 1.035.192 1.472.138.437.33.816.576 1.136.256.31.565.55.928.72.362.17.778.256 1.248.256.458 0 .869-.085 1.232-.256.373-.17.682-.41.928-.72.256-.32.448-.699.576-1.136.138-.437.208-.928.208-1.472 0-.544-.07-1.035-.208-1.472a3.086 3.086 0 00-.576-1.136 2.416 2.416 0 00-.928-.736 2.859 2.859 0 00-1.232-.256c-.47 0-.886.09-1.248.272-.363.17-.672.416-.928.736a3.45 3.45 0 00-.576 1.136 5.173 5.173 0 00-.192 1.456zm8.464 0c0 .95-.144 1.787-.432 2.512a5.154 5.154 0 01-1.152 1.808 4.807 4.807 0 01-1.76 1.088 6.298 6.298 0 01-2.176.368 6.204 6.204 0 01-2.144-.368 4.986 4.986 0 01-1.76-1.088 5.223 5.223 0 01-1.184-1.808c-.288-.725-.432-1.563-.432-2.512 0-.95.149-1.781.448-2.496.298-.725.698-1.333 1.2-1.824a5.064 5.064 0 011.76-1.104 6.11 6.11 0 012.112-.368c.757 0 1.472.123 2.144.368a4.875 4.875 0 011.76 1.104c.501.49.896 1.099 1.184 1.824.288.715.432 1.547.432 2.496zm10.809-5.536v2.128h-3.344V20h-2.496v-8.96h-3.344V8.912h9.184zm5.732-.128c1.664 0 2.939.299 3.824.896.886.587 1.328 1.504 1.328 2.752 0 .779-.181 1.413-.544 1.904-.352.48-.864.859-1.536 1.136.224.277.459.597.704.96.246.352.486.725.72 1.12.246.384.48.79.704 1.216.224.416.432.827.624 1.232h-2.8c-.202-.363-.41-.73-.624-1.104a17.85 17.85 0 00-.64-1.088 19.36 19.36 0 00-.64-.992 9.902 9.902 0 00-.64-.864h-1.232V20h-2.496V9.072a14.162 14.162 0 011.68-.224c.587-.043 1.11-.064 1.568-.064zm.144 2.128c-.181 0-.346.005-.496.016-.138.01-.272.021-.4.032v3.008h.704c.939 0 1.611-.117 2.016-.352.406-.235.608-.635.608-1.2 0-.544-.208-.928-.624-1.152-.405-.235-1.008-.352-1.808-.352zm8.16-2h2.496V20h-2.496V8.912zm9.271-.128c1.653 0 2.922.293 3.808.88.885.576 1.328 1.525 1.328 2.848 0 1.333-.448 2.299-1.344 2.896-.896.587-2.176.88-3.84.88h-.784V20h-2.496V9.072c.544-.107 1.12-.181 1.728-.224a23.192 23.192 0 011.6-.064zm.16 2.128c-.182 0-.363.005-.544.016-.171.01-.32.021-.448.032v3.2h.784c.864 0 1.514-.117 1.952-.352.437-.235.656-.672.656-1.312 0-.31-.059-.565-.176-.768a1.16 1.16 0 00-.48-.48 1.903 1.903 0 00-.752-.256 5.673 5.673 0 00-.992-.08z" fill="#fff"/><g clip-path="url(#clip0)" fill="#fff"><path d="M14.71 11.072a3.125 3.125 0 11-4.42 4.42 3.125 3.125 0 014.42-4.42z"/><path d="M21.875 4.687h-2.16l-1.563-3.125H6.846L5.284 4.69l-2.156.004a3.13 3.13 0 00-3.12 3.123L0 20.312a3.129 3.129 0 003.125 3.126h18.75A3.128 3.128 0 0025 20.313v-12.5a3.128 3.128 0 00-3.125-3.126zM12.5 19.532a6.257 6.257 0 01-6.25-6.25A6.257 6.257 0 0112.5 7.03a6.257 6.257 0 016.25 6.25 6.257 6.257 0 01-6.25 6.25z"/></g><defs><clipPath id="clip0"><path fill="#fff" d="M0 0h25v25H0z"/></clipPath></defs></svg>