<svg width="39" height="39" fill="none" xmlns="http://www.w3.org/2000/svg"><g clip-path="url(#clip0)" fill="#FF7D34"><path d="M37.977 30.087l-7.894-5.265a2.304 2.304 0 00-3.085.501l-2.3 2.957a.983.983 0 01-1.26.265l-.437-.241c-1.45-.79-3.254-1.774-6.889-5.41-3.635-3.637-4.62-5.442-5.411-6.89l-.24-.437a.984.984 0 01.26-1.265l2.954-2.298a2.305 2.305 0 00.502-3.085L8.913 1.024a2.292 2.292 0 00-3.09-.696l-3.3 1.983A4.656 4.656 0 00.398 5.068C-.789 9.398.105 16.873 11.116 27.885 19.873 36.643 26.395 39 30.876 39c1.032.004 2.06-.13 3.055-.4a4.653 4.653 0 002.756-2.123l1.985-3.298a2.292 2.292 0 00-.695-3.091zm-.425 2.424l-1.98 3.3a3.359 3.359 0 01-1.983 1.537c-3.998 1.098-10.983.188-21.554-10.382C1.465 16.395.555 9.41 1.653 5.412a3.364 3.364 0 011.538-1.985l3.301-1.98a.994.994 0 011.34.301l2.86 4.293 2.4 3.6a1 1 0 01-.216 1.339L9.92 13.279a2.275 2.275 0 00-.602 2.919l.235.426c.83 1.524 1.863 3.419 5.633 7.188 3.77 3.77 5.665 4.802 7.187 5.633l.427.235a2.275 2.275 0 002.92-.602l2.298-2.955a1 1 0 011.34-.217l7.892 5.264a.994.994 0 01.302 1.34zM22.099 6.503c6.099.007 11.041 4.95 11.048 11.049a.65.65 0 001.3 0c-.008-6.817-5.532-12.34-12.348-12.348a.65.65 0 100 1.3z"/><path d="M22.099 10.402a7.157 7.157 0 017.149 7.15.65.65 0 001.3 0 8.458 8.458 0 00-8.45-8.45.65.65 0 100 1.3z"/><path d="M22.099 14.302a3.253 3.253 0 013.25 3.25.65.65 0 101.3 0 4.555 4.555 0 00-4.55-4.55.65.65 0 100 1.3z"/></g><defs><clipPath id="clip0"><path fill="#fff" d="M0 0h39v39H0z"/></clipPath></defs></svg>