<svg width="29" height="28" fill="none" xmlns="http://www.w3.org/2000/svg"><g clip-path="url(#clip0)"><path d="M22.895 18.613c-2.762 3.3-6.087 5.9-9.881 7.74-1.445.684-3.377 1.496-5.53 1.635-.133.006-.26.012-.394.012-1.445 0-2.605-.499-3.55-1.526a.126.126 0 01-.024-.029c-.336-.406-.72-.772-1.12-1.16a26.96 26.96 0 01-.818-.813c-1.236-1.288-1.236-2.924.012-4.171l3.487-3.487c.592-.615 1.3-.94 2.042-.94.743 0 1.456.325 2.066.934l2.077 2.077c.191-.11.388-.209.574-.302a7.18 7.18 0 00.638-.348c1.892-1.2 3.609-2.767 5.251-4.78.83-1.05 1.387-1.932 1.775-2.832a34.954 34.954 0 01-1.549-1.514c-.174-.18-.354-.36-.534-.54-.626-.626-.963-1.351-.963-2.088 0-.737.331-1.462.963-2.089l1.73-1.729c.203-.203.394-.4.591-.603A32.34 32.34 0 0120.916.893C21.514.308 22.216 0 22.958 0c.737 0 1.445.308 2.066.9l2.17 2.17a4.459 4.459 0 011.328 2.854c.11 1.386-.145 2.86-.806 4.641-1.015 2.756-2.547 5.315-4.822 8.048zm4.212-12.567a3.07 3.07 0 00-.923-1.973l-2.158-2.158c-.337-.325-.708-.494-1.068-.494-.354 0-.713.169-1.044.505-.389.36-.754.737-1.149 1.137-.197.203-.4.407-.603.615l-1.73 1.73c-.359.36-.545.725-.545 1.084 0 .36.186.726.546 1.085.18.18.36.366.54.546.539.545 1.044 1.061 1.6 1.555l.03.029c.481.481.406.94.29 1.288l-.018.046c-.446 1.073-1.067 2.095-2.036 3.313-1.74 2.147-3.574 3.812-5.593 5.094-.25.162-.517.29-.766.418a7.205 7.205 0 00-.638.348c-.023.011-.04.023-.064.035a1.213 1.213 0 01-.563.145c-.464 0-.766-.296-.864-.395l-2.17-2.17c-.337-.336-.702-.516-1.062-.516-.44 0-.8.273-1.027.516l-3.498 3.493c-.697.696-.69 1.45.017 2.187.244.261.499.51.772.772.406.395.83.8 1.212 1.259.667.72 1.462 1.056 2.49 1.056.098 0 .202-.006.301-.012 1.903-.122 3.673-.864 5.001-1.497 3.609-1.746 6.777-4.223 9.405-7.368 2.164-2.605 3.62-5.03 4.584-7.63.597-1.595.823-2.877.73-4.043z" fill="#fff"/></g><defs><clipPath id="clip0"><path fill="#fff" transform="matrix(-1 0 0 1 28.6 0)" d="M0 0h28v28H0z"/></clipPath></defs></svg>